<?xml version="1.0" encoding="utf-8"?>
<!-- Generator: Adobe Illustrator 24.1.3, SVG Export Plug-In . SVG Version: 6.00 Build 0)  -->
<svg version="1.1" id="Layer_1" xmlns="http://www.w3.org/2000/svg" xmlns:xlink="http://www.w3.org/1999/xlink" x="0px" y="0px"
	 viewBox="0 0 600 600" style="enable-background:new 0 0 600 600;" xml:space="preserve">
<style type="text/css">
	.st0{fill:url(#SVGID_1_);}
	.st1{fill:url(#SVGID_2_);}
	.st2{fill:url(#SVGID_3_);}
	.st3{fill:url(#SVGID_4_);}
	.st4{fill:url(#SVGID_5_);}
	.st5{fill:url(#SVGID_6_);}
	.st6{fill:url(#SVGID_7_);}
	.st7{fill:url(#SVGID_8_);}
	.st8{fill:url(#SVGID_9_);}
	.st9{fill:url(#SVGID_10_);}
	.st10{fill:url(#SVGID_11_);}
	.st11{fill:url(#SVGID_12_);}
	.st12{fill:url(#SVGID_13_);}
</style>
<g>
	
		<linearGradient id="SVGID_1_" gradientUnits="userSpaceOnUse" x1="439.5446" y1="204.5719" x2="439.5446" y2="204.5719" gradientTransform="matrix(-1 0 0 1 694.6068 0)">
		<stop  offset="0" style="stop-color:#F26D30"/>
		<stop  offset="0.4951" style="stop-color:#F89F32"/>
		<stop  offset="1" style="stop-color:#FFC53E"/>
	</linearGradient>
	<path class="st0" d="M255.06,204.57"/>
	<g>
		
			<linearGradient id="SVGID_2_" gradientUnits="userSpaceOnUse" x1="576.9587" y1="471.3042" x2="582.6493" y2="154.5288" gradientTransform="matrix(-1 0 0 1 694.6068 0)">
			<stop  offset="0" style="stop-color:#F26D30"/>
			<stop  offset="0.4951" style="stop-color:#F89F32"/>
			<stop  offset="1" style="stop-color:#FFC53E"/>
		</linearGradient>
		<path class="st1" d="M116.2,419.96c0.36,1.1,0.73,2.19,1.12,3.28C116.93,422.15,116.56,421.06,116.2,419.96z"/>
		
			<linearGradient id="SVGID_3_" gradientUnits="userSpaceOnUse" x1="203.3978" y1="293.7569" x2="351.3528" y2="293.7569" gradientTransform="matrix(-1 0 0 1 694.6068 0)">
			<stop  offset="0" style="stop-color:#3178C6"/>
			<stop  offset="1" style="stop-color:#8BBBF0"/>
		</linearGradient>
		<path class="st2" d="M423.42,411.67c2.61-42.65-17.01-82.77-37.7-118.76c-17.82-31-48.19-52.93-64.19-84.85
			C297.84,160.83,331.2,103,356.53,63.29c-7.08,94.74,16.99,145.47,41.37,174.48c12.86,15.3,21.64,19.61,40.19,43.66
			c29.39,38.1,58.04,75.26,53.11,121.4c-6.26,58.59-62.52,92.82-72.08,98.64c-26.81,16.31-52.72,21.13-68.29,22.76
			C390.9,501.34,420.57,458.22,423.42,411.67z"/>
		
			<linearGradient id="SVGID_4_" gradientUnits="userSpaceOnUse" x1="343.872" y1="467.117" x2="349.5626" y2="150.3416" gradientTransform="matrix(-1 0 0 1 694.6068 0)">
			<stop  offset="0" style="stop-color:#F26D30"/>
			<stop  offset="0.4951" style="stop-color:#F89F32"/>
			<stop  offset="1" style="stop-color:#FFC53E"/>
		</linearGradient>
		<path class="st3" d="M352.64,521.92c-1.14,1.51-1.8,2.3-1.8,2.3C351.43,523.49,352.03,522.72,352.64,521.92z"/>
		
			<linearGradient id="SVGID_5_" gradientUnits="userSpaceOnUse" x1="574.6611" y1="471.2629" x2="580.3517" y2="154.4875" gradientTransform="matrix(-1 0 0 1 694.6068 0)">
			<stop  offset="0" style="stop-color:#F26D30"/>
			<stop  offset="0.4951" style="stop-color:#F89F32"/>
			<stop  offset="1" style="stop-color:#FFC53E"/>
		</linearGradient>
		<path class="st4" d="M120.28,431.09c-0.79-1.92-1.52-3.84-2.22-5.75C118.77,427.26,119.5,429.18,120.28,431.09z"/>
		
			<linearGradient id="SVGID_6_" gradientUnits="userSpaceOnUse" x1="392.8987" y1="321.5614" x2="542.7505" y2="461.929" gradientTransform="matrix(-1 0 0 1 694.6068 0)">
			<stop  offset="0" style="stop-color:#3178C6"/>
			<stop  offset="1" style="stop-color:#8BBBF0"/>
		</linearGradient>
		<path class="st5" d="M156.65,321.5c-1.53-34.13,5.36-63.93,13.98-87.48c7.02,1.65-4.29,33.95,15.25,70.03
			c12.41,22.91,37.35,52.59,64.05,57.77c-6.15-26.96-24.17-51.74-30.61-79.65c-5.81-25.2-4.52-50.06,2.05-73.63
			c21.26,8.9,49.9,23.65,79.18,48.06c34.91,29.1,56.59,60.17,69.24,81.72c-0.74,26.65-5.05,66.82-22.76,111.91
			c-14.86,37.83-34.09,66.26-49.32,85.36C281.72,525.75,162.39,449.7,156.65,321.5z"/>
		
			<linearGradient id="SVGID_7_" gradientUnits="userSpaceOnUse" x1="362.0117" y1="128.6942" x2="312.6934" y2="566.8685" gradientTransform="matrix(-1 0 0 1 694.6068 0)">
			<stop  offset="0" style="stop-color:#F26D30"/>
			<stop  offset="0.4951" style="stop-color:#F89F32"/>
			<stop  offset="1" style="stop-color:#FFC53E"/>
		</linearGradient>
		<path class="st6" d="M383.09,459.73c-7.2,28.17-20.33,49.03-30.45,62.19c10.46-13.9,61.66-89.48,17.17-183.59
			C377.16,353.6,397.89,401.78,383.09,459.73z"/>
		
			<linearGradient id="SVGID_8_" gradientUnits="userSpaceOnUse" x1="369.183" y1="467.5717" x2="374.8736" y2="150.7963" gradientTransform="matrix(-1 0 0 1 694.6068 0)">
			<stop  offset="0" style="stop-color:#3178C6"/>
			<stop  offset="1" style="stop-color:#8BBBF0"/>
		</linearGradient>
		<path class="st7" d="M300.57,256.61c-29.28-24.42-57.93-39.16-79.18-48.06c1.86-6.67,4.14-13.25,6.81-19.7
			c9.65-20.62,25.34-47.03,50.65-72.37c28.61-28.65,58.2-44.59,77.69-53.19c-25.33,39.71-58.69,97.54-35.01,144.78
			c16,31.92,46.37,53.85,64.19,84.85c20.69,35.99,40.31,76.11,37.7,118.76c-2.85,46.56-32.51,89.67-72.57,112.56
			c0,0,0.66-0.79,1.8-2.3c10.12-13.16,23.25-34.02,30.45-62.19c14.8-57.95-5.93-106.13-13.28-121.4
			C357.16,316.78,335.47,285.71,300.57,256.61z"/>
		
			<linearGradient id="SVGID_9_" gradientUnits="userSpaceOnUse" x1="518.8533" y1="322.6236" x2="473.3288" y2="542.6591" gradientTransform="matrix(-1 0 0 1 694.6068 0)">
			<stop  offset="0" style="stop-color:#F26D30"/>
			<stop  offset="0.4951" style="stop-color:#F89F32"/>
			<stop  offset="1" style="stop-color:#FFC53E"/>
		</linearGradient>
		<path class="st8" d="M297.73,535.61c-75.84,8.66-148.62-34.29-177.44-104.52C148.51,499.76,220.78,542.91,297.73,535.61z"/>
		
			<linearGradient id="SVGID_10_" gradientUnits="userSpaceOnUse" x1="594.7078" y1="338.3176" x2="549.1832" y2="558.3531" gradientTransform="matrix(-1 0 0 1 694.6068 0)">
			<stop  offset="0" style="stop-color:#F26D30"/>
			<stop  offset="0.4951" style="stop-color:#F89F32"/>
			<stop  offset="1" style="stop-color:#FFC53E"/>
		</linearGradient>
		<path class="st9" d="M117.31,423.25c0.25,0.7,0.49,1.39,0.75,2.09C117.8,424.64,117.56,423.94,117.31,423.25z"/>
		
			<linearGradient id="SVGID_11_" gradientUnits="userSpaceOnUse" x1="523.9756" y1="234.0077" x2="523.9728" y2="234.0215" gradientTransform="matrix(-1 0 0 1 694.6068 0)">
			<stop  offset="0" style="stop-color:#F26D30"/>
			<stop  offset="0.4951" style="stop-color:#F89F32"/>
			<stop  offset="1" style="stop-color:#FFC53E"/>
		</linearGradient>
		<path class="st10" d="M170.62,234.02c0.01,0,0.01-0.01,0.02-0.01C170.64,234.01,170.64,234.02,170.62,234.02
			C170.63,234.02,170.63,234.02,170.62,234.02C170.63,234.02,170.63,234.02,170.62,234.02z"/>
		
			<linearGradient id="SVGID_12_" gradientUnits="userSpaceOnUse" x1="491.3311" y1="469.7659" x2="497.0217" y2="152.9906" gradientTransform="matrix(-1 0 0 1 694.6068 0)">
			<stop  offset="0" style="stop-color:#F26D30"/>
			<stop  offset="0.4951" style="stop-color:#F89F32"/>
			<stop  offset="1" style="stop-color:#FFC53E"/>
		</linearGradient>
		<path class="st11" d="M117.31,423.25c-0.39-1.09-0.75-2.19-1.12-3.28c-17.65-53.86-3.07-105.76,15.66-141
			c10.01-16.81,22.99-32.09,38.76-44.95c0,0,0,0,0,0c0,0,0,0,0,0c-8.63,23.54-15.51,53.35-13.98,87.48
			c5.74,128.2,125.07,204.25,141.08,214.11c-76.95,7.31-149.22-35.85-177.44-104.52c-0.78-1.91-1.51-3.83-2.22-5.75
			C117.8,424.64,117.56,423.94,117.31,423.25z"/>
		
			<linearGradient id="SVGID_13_" gradientUnits="userSpaceOnUse" x1="491.2647" y1="463.6092" x2="531.0988" y2="292.8919" gradientTransform="matrix(-1 0 0 1 694.6068 0)">
			<stop  offset="0" style="stop-color:#3178C6"/>
			<stop  offset="1" style="stop-color:#8BBBF0"/>
		</linearGradient>
		<path class="st12" d="M117.31,423.25c-0.39-1.09-0.75-2.19-1.12-3.28c-17.65-53.86-3.07-105.76,15.66-141
			c10.01-16.81,22.99-32.09,38.76-44.95c0,0,0,0,0,0c0,0,0,0,0,0c-8.63,23.54-15.51,53.35-13.98,87.48
			c5.74,128.2,125.07,204.25,141.08,214.11c-76.95,7.31-149.22-35.85-177.44-104.52c-0.78-1.91-1.51-3.83-2.22-5.75
			C117.8,424.64,117.56,423.94,117.31,423.25z"/>
	</g>
</g>
</svg>
